<svg width="200" height="65" viewBox="0 0 200 65" fill="none" xmlns="http://www.w3.org/2000/svg">
<path d="M32.9004 0C39.7701 5.58807e-05 45.2899 1.47995 50.9697 5.21973V17.1904C44.5498 11.5105 39.4602 9.25984 32.6104 9.25977C19.6004 9.25977 10.4805 18.9604 10.4805 32.6904C10.4807 46.4202 19.4505 55.5703 32.6104 55.5703C39.7701 55.5702 44.5501 53.6201 51.1299 47.8203V59.5996C44.86 63.4895 39.7802 64.9902 32.9004 64.9902L32.0352 64.96C13.9342 64.5311 0 50.663 0 32.5996C0.000205257 14.2498 14.5205 0 32.9004 0ZM104.22 0C111.07 0 116.61 1.47986 122.3 5.21973V17.1904C115.85 11.5104 110.78 9.25977 103.93 9.25977C90.8899 9.25992 81.7998 18.9605 81.7998 32.6904C81.8 46.4201 90.75 55.5702 103.93 55.5703C111.07 55.5703 115.85 53.6201 122.43 47.8203V59.5996C116.16 63.4896 111.07 64.9902 104.22 64.9902L103.354 64.96C85.2156 64.5309 71.3203 50.6533 71.3203 32.5898C71.3204 14.24 85.8199 0.000145654 104.22 0ZM164.01 22.2002C175.8 22.2002 185.4 31.7999 185.4 43.5898C185.4 55.3798 175.8 64.9795 164.01 64.9795C152.22 64.9794 142.62 55.3898 142.62 43.5898C142.62 31.79 152.22 22.2003 164.01 22.2002ZM199.97 63.4102H189.97V11.2305H151.14L156.57 1.73047H199.97V63.4102ZM164.01 30.8896C157.07 30.8898 151.42 36.6302 151.42 43.5801C151.42 50.5299 157.06 56.2801 164.01 56.2803C170.95 56.2803 176.6 50.52 176.6 43.5801C176.6 36.6401 170.95 30.8896 164.01 30.8896Z" fill="#00BFB3"/>
</svg>
