<?xml version="1.0" encoding="utf-8"?>
<!-- Generator: Adobe Illustrator 21.1.0, SVG Export Plug-In . SVG Version: 6.00 Build 0)  -->
<!DOCTYPE svg PUBLIC "-//W3C//DTD SVG 1.1//EN" "http://www.w3.org/Graphics/SVG/1.1/DTD/svg11.dtd">
<svg version="1.1" id="Layer_1" xmlns="http://www.w3.org/2000/svg" xmlns:xlink="http://www.w3.org/1999/xlink" x="0px" y="0px"
	 viewBox="0 0 217 33.2" style="enable-background:new 0 0 217 33.2;" xml:space="preserve">
<path d="M133,25.1h-1.5v1.6h-1.6V28h1.6v2c0,0.8,0.1,1.3,0.4,1.7c0.4,0.5,1.1,0.8,2,0.8c0.3,0,0.8,0,1-0.1l-0.3-1.3
	c-0.1,0.1-0.4,0.1-0.6,0.1c-0.4,0-0.6-0.1-0.8-0.3c-0.1-0.1-0.2-0.3-0.2-0.7V28h1.9v-1.3H133V25.1z M162.8,13.3c0.6,0,1-0.4,1-1
	c0-0.6-0.4-1-1-1c-0.5,0-1,0.4-1,1C161.8,12.9,162.2,13.3,162.8,13.3z M134.3,20h1.5v-5.7h-1.5V20z M135,11.3c-0.5,0-1,0.4-1,1
	c0,0.6,0.4,1,1,1c0.6,0,1-0.4,1-1C136,11.7,135.6,11.3,135,11.3z M139.4,26.6c-0.6,0-1.2,0.2-1.6,0.5V24h-1.5v8.4h1.6v-3.7
	c0.2-0.3,0.8-0.7,1.4-0.7c0.4,0,0.7,0.1,0.9,0.3c0.2,0.2,0.3,0.5,0.3,1.1v3h1.5v-2.9c0-1-0.2-1.6-0.6-2
	C140.9,27,140.2,26.6,139.4,26.6z M162,20h1.5v-5.7H162V20z M138.5,20h1.5v-4.5h1.7v-1.3h-1.8V14c0-0.5,0.1-0.7,0.2-0.9
	c0.2-0.2,0.5-0.3,0.9-0.3c0.2,0,0.4,0.1,0.5,0.1l0.3-1.3c-0.3-0.1-0.6-0.1-0.9-0.1c-0.8,0-1.4,0.3-1.8,0.7c-0.4,0.4-0.6,1-0.6,1.9
	v0.2H137v1.3h1.5V20z M132.4,11.6h-1.5V20h1.5V11.6z M156.3,16.3c0.2-0.3,0.8-0.7,1.4-0.7c0.4,0,0.7,0.1,0.9,0.3
	c0.2,0.2,0.3,0.5,0.3,1.1v3h1.5v-2.9c0-1-0.2-1.6-0.6-2c-0.5-0.5-1.2-0.9-2-0.9c-0.6,0-1.2,0.2-1.6,0.6v-0.5h-1.5V20h1.6V16.3z
	 M118.9,20.2c1.5,0,2.8-0.7,3.5-1.6l-1.1-1c-0.4,0.6-1.2,1.1-2.3,1.1c-1.6,0-2.8-1.2-2.8-2.8c0-1.6,1.1-2.8,2.7-2.9
	c0.8,0,1.5,0.4,2,0.9l1-1.1c-0.7-0.7-1.8-1.2-3-1.2c-2.6,0-4.4,1.9-4.4,4.3C114.5,18.3,116.3,20.2,118.9,20.2z M124.5,25.6
	c0.2-0.2,0.5-0.3,0.9-0.3c0.2,0,0.4,0.1,0.5,0.1l0.2-1.4c-0.3-0.1-0.6-0.1-0.9-0.1c-0.8,0-1.4,0.3-1.8,0.7c-0.4,0.4-0.6,1-0.6,1.9
	v0.2h-1.5V28h1.5v4.4h1.5V28h1.8v-1.3h-1.8v-0.2C124.3,26,124.4,25.8,124.5,25.6z M117.7,26.6c-1.8,0-3.1,1.3-3,3c0,1.7,1.3,3,3,3
	s3-1.3,3-3C120.7,27.9,119.4,26.6,117.7,26.6z M117.7,31.1c-0.9,0-1.5-0.7-1.5-1.6c0-0.9,0.6-1.6,1.5-1.6c0.9,0,1.5,0.7,1.5,1.6
	C119.2,30.4,118.6,31.1,117.7,31.1z M127.6,14.7c-0.5-0.4-1.1-0.6-1.7-0.6c-1.5,0-2.8,1.3-2.8,3c0,0.8,0.3,1.5,0.7,2
	c0.5,0.6,1.3,1,2.2,1c0.6,0,1.1-0.2,1.6-0.6V20h1.5v-5.8h-1.5V14.7z M127.5,18.1c-0.3,0.4-0.8,0.7-1.4,0.7c-0.9,0-1.5-0.7-1.5-1.6
	s0.6-1.6,1.5-1.6c0.6,0,1.1,0.3,1.4,0.7V18.1z M191.5,20h1.5v-8.4h-1.5V20z M194.9,20h1.5v-8.4h-1.5V20z M187.1,14.2
	c-1.8,0-3,1.3-3,3s1.3,3,3,3c1.7,0,3-1.3,3-3S188.8,14.2,187.1,14.2z M187.1,18.7c-0.9,0-1.6-0.7-1.5-1.6c0-0.9,0.6-1.6,1.5-1.6
	c0.9,0,1.5,0.7,1.5,1.6C188.6,18,188,18.7,187.1,18.7z M217,17c0-1.6-1.1-2.9-2.7-2.9c-1.7,0-2.8,1.4-2.8,3c0,1.8,1.3,3,3,3
	c0.9,0,1.8-0.3,2.4-1l-1-1c-0.2,0.3-0.8,0.7-1.4,0.7c-0.8,0-1.4-0.6-1.5-1.4h4V17z M213.1,16.4c0-0.5,0.6-1,1.2-1
	c0.6,0,1.1,0.5,1.1,1H213.1z M179.8,18.7c-1.6,0-2.8-1.2-2.8-2.8c0-1.6,1.2-2.8,2.7-2.9c0.8,0,1.5,0.4,2,0.9l1-1.1
	c-0.7-0.7-1.8-1.2-3-1.2c-2.6,0-4.4,1.9-4.4,4.3c0,2.4,1.8,4.3,4.4,4.3c1.5,0,2.8-0.7,3.5-1.6l-1.1-1
	C181.7,18.2,180.9,18.7,179.8,18.7z M145.4,20.2c1.7,0,3-1.3,3-3s-1.3-3-3-3c-1.8,0-3,1.3-3,3S143.7,20.2,145.4,20.2z M143.9,17.1
	c0-0.9,0.6-1.6,1.5-1.6c0.9,0,1.5,0.7,1.5,1.6c0,0.9-0.6,1.6-1.5,1.6C144.5,18.7,143.8,18,143.9,17.1z M208.8,14.6
	c-0.5-0.4-1-0.6-1.7-0.6c-1.5,0-2.8,1.3-2.8,3c0,0.8,0.3,1.5,0.7,2c0.5,0.6,1.3,1,2.2,1c0.5,0,1-0.1,1.5-0.5v0.2
	c0,0.7-0.2,1-0.4,1.3c-0.3,0.3-0.7,0.5-1.2,0.5c-1,0-1.5-0.5-1.8-0.8l-1,1c0.6,0.7,1.7,1.2,2.8,1.2c1.1,0,2-0.4,2.5-1.1
	c0.3-0.5,0.5-1.1,0.5-2.1h0.2v-5.6h-1.5V14.6z M208.6,18.1c-0.3,0.4-0.8,0.7-1.4,0.7c-0.9,0-1.5-0.7-1.5-1.6s0.6-1.6,1.5-1.6
	c0.6,0,1.1,0.3,1.4,0.7V18.1z M200.4,14.1c-1.7,0-2.8,1.4-2.8,3c0,1.8,1.3,3,3,3c0.9,0,1.8-0.3,2.4-1l-1-1c-0.2,0.3-0.8,0.7-1.4,0.7
	c-0.8,0-1.4-0.6-1.5-1.4h4V17C203.1,15.4,202,14.1,200.4,14.1z M199.3,16.4c0-0.5,0.6-1,1.2-1c0.6,0,1.1,0.5,1.1,1H199.3z
	 M173.7,28.4c0-0.3,0.4-0.5,0.8-0.5s0.8,0.2,1.1,0.4l0.7-1.1c-0.3-0.3-1.2-0.6-1.9-0.6c-1.1,0-2.2,0.7-2.2,1.8
	c0,1.8,2.8,1.5,2.8,2.4c0,0.3-0.3,0.5-0.7,0.5c-0.6,0-1.2-0.2-1.6-0.6l-0.8,1.1c0.7,0.5,1.5,0.8,2.3,0.8c1.2,0,2.3-0.7,2.3-1.8
	C176.5,28.8,173.7,29.1,173.7,28.4z M145.9,26.5c-1.7,0-2.8,1.4-2.8,3c0,1.8,1.3,3,3,3c0.9,0,1.8-0.3,2.4-1l-1-1
	c-0.2,0.3-0.8,0.7-1.4,0.7c-0.8,0-1.4-0.6-1.5-1.4h4v-0.4C148.6,27.8,147.5,26.5,145.9,26.5z M144.8,28.8c0-0.5,0.6-1,1.2-1
	c0.6,0,1.1,0.5,1.1,1H144.8z M155.9,24.1l-3.5,8.3h1.5l0.8-1.8h3.3l0.8,1.8h1.7l-3.5-8.3H155.9z M155.4,29.2l1-2.4l1.1,2.4H155.4z
	 M153.2,15.6l0.2-1.4h-0.5c-0.7,0-1.4,0.3-1.7,0.7v-0.6h-1.5V20h1.5v-3.7c0.2-0.3,0.7-0.8,1.4-0.8C152.9,15.5,153.1,15.6,153.2,15.6
	z M169.4,14.7c-0.5-0.4-1-0.6-1.7-0.6c-1.5,0-2.8,1.3-2.8,3c0,0.8,0.3,1.5,0.7,2c0.5,0.6,1.3,1,2.2,1c0.6,0,1.1-0.2,1.6-0.6V20h1.5
	v-5.8h-1.5V14.7z M169.4,18.1c-0.3,0.4-0.8,0.7-1.4,0.7c-0.9,0-1.5-0.7-1.5-1.6s0.6-1.6,1.5-1.6c0.6,0,1.1,0.3,1.4,0.7V18.1z
	 M162.9,27.3v-0.6h-1.5v5.7h1.5v-3.6c0.2-0.3,0.7-0.8,1.4-0.8c0.3,0,0.5,0.1,0.6,0.1l0.2-1.5h-0.5C163.9,26.6,163.2,26.9,162.9,27.3
	z M169,25.1h-1.5v1.6h-1.6V28h1.6v2c0,0.8,0.1,1.3,0.4,1.7c0.4,0.5,1.1,0.8,2,0.8c0.3,0,0.8,0,1-0.1l-0.3-1.3
	c-0.1,0.1-0.4,0.1-0.6,0.1c-0.4,0-0.6-0.1-0.8-0.3c-0.1-0.1-0.2-0.3-0.2-0.7V28h1.9v-1.3H169V25.1z"/>
<g id="logo-shapes">
	<path d="M16.8,33.2C7.4,33.2,0,26.1,0,16.7S7.4,0,16.8,0c3.5,0,6.3,0.8,9.2,2.7v6.1c-3.3-2.9-5.9-4.1-9.4-4.1
		c-6.7,0-11.3,5-11.3,12s4.6,11.7,11.3,11.7c3.7,0,6.1-1,9.5-4v6C22.9,32.5,20.3,33.2,16.8,33.2"/>
	<path d="M53.3,33.2c-9.5,0-16.8-7.2-16.8-16.6C36.5,7.3,43.9,0,53.3,0c3.5,0,6.3,0.8,9.2,2.7v6.1c-3.3-2.9-5.9-4.1-9.4-4.1
		c-6.7,0-11.3,5-11.3,12s4.6,11.7,11.3,11.7c3.7,0,6.1-1,9.5-4v6C59.4,32.5,56.8,33.2,53.3,33.2"/>
	<polygon points="80.1,0.9 77.3,5.7 97.1,5.7 97.1,32.4 102.3,32.4 102.3,0.9 	"/>
	<path d="M83.9,11.4c-6,0-10.9,4.9-10.9,10.9s4.9,10.9,10.9,10.9s10.9-4.9,10.9-10.9S89.9,11.4,83.9,11.4 M83.9,28.8
		c-3.6,0-6.4-2.9-6.4-6.5s2.9-6.5,6.4-6.5c3.6,0,6.4,2.9,6.4,6.5C90.3,25.8,87.4,28.8,83.9,28.8"/>
</g>
</svg>
