<?xml version="1.0" encoding="utf-8"?>
<!-- Generator: Adobe Illustrator 21.1.0, SVG Export Plug-In . SVG Version: 6.00 Build 0)  -->
<!DOCTYPE svg PUBLIC "-//W3C//DTD SVG 1.1//EN" "http://www.w3.org/Graphics/SVG/1.1/DTD/svg11.dtd">
<svg version="1.1" id="Layer_1" xmlns="http://www.w3.org/2000/svg" xmlns:xlink="http://www.w3.org/1999/xlink" x="0px" y="0px"
	 viewBox="0 0 276.3 320.9" style="enable-background:new 0 0 276.3 320.9;" xml:space="preserve">
<style type="text/css">
	.st0{fill:#00B8B0;}
</style>
<path class="st0" d="M71.4,320.9C32.9,321.9,1,291.4,0,253c0-0.8,0-1.5,0-2.3C-0.3,212,30.9,180.3,69.7,180c0.6,0,1.1,0,1.7,0
	c13.9-0.4,27.6,3.6,39.2,11.3v25.9c-13.9-12.3-24.9-17.2-39.8-17.2c-28.2,0-48,21.2-48,50.9s19.5,49.6,48,49.6
	c15.5,0,25.9-4.2,40.2-17v25.4c-11.7,7.8-25.5,11.9-39.5,11.7"/>
<path class="st0" d="M71.4,140.9C32.9,141.9,1,111.5,0.1,73c0-0.8,0-1.5,0-2.3C-0.3,32,30.9,0.3,69.6,0c0.6,0,1.2,0,1.8,0
	C85.3-0.4,99,3.6,110.5,11.3v25.9c-14-12.3-25-17.2-39.8-17.2c-28.3,0-48,21.2-48,50.9s19.4,49.6,48,49.6c15.5,0,25.9-4.2,40.1-17
	v25.4c-11.6,7.9-25.4,11.9-39.5,11.7"/>
<polygon class="st0" points="182.2,183.8 170.4,204.4 254.6,204.4 254.6,317.5 276.3,317.5 276.3,183.8 "/>
<path class="st0" d="M198.3,228.2c-25.6,0-46.4,20.8-46.4,46.4s20.8,46.4,46.4,46.4s46.4-20.8,46.4-46.4
	C244.6,249,223.9,228.3,198.3,228.2 M198.3,302.1c-15.2,0.1-27.6-12.1-27.7-27.3c-0.1-15.2,12.1-27.6,27.3-27.7
	c15.2-0.1,27.6,12.1,27.7,27.3c0,0.1,0,0.1,0,0.2C225.6,289.7,213.5,301.9,198.3,302.1"/>
</svg>
